<?xml version="1.0" standalone="no"?>
<!DOCTYPE svg PUBLIC "-//W3C//DTD SVG 20010904//EN"
 "http://www.w3.org/TR/2001/REC-SVG-20010904/DTD/svg10.dtd">
<svg version="1.0" xmlns="http://www.w3.org/2000/svg"
 width="16.000000pt" height="16.000000pt" viewBox="0 0 16.000000 16.000000"
 preserveAspectRatio="xMidYMid meet">
<metadata>
Created by potrace 1.11, written by Peter Selinger 2001-2013
</metadata>
<g transform="translate(0.000000,16.000000) scale(0.002867,-0.002867)"
fill="#000000" stroke="none">
<path d="M3675 4773 c-47 -19 -93 -49 -118 -78 -26 -29 -19 -19 -523 -675
-460 -598 -509 -662 -616 -800 -32 -41 -67 -86 -77 -100 -10 -14 -152 -198
-315 -410 -163 -212 -307 -398 -319 -414 -381 -497 -572 -745 -586 -759 -16
-16 -17 30 -17 848 l0 865 181 0 c99 0 196 5 216 10 50 14 117 76 133 124 28
83 -1 170 -73 221 l-43 30 -333 0 -334 0 -38 -31 c-21 -16 -50 -54 -65 -83
l-28 -54 0 -1266 0 -1267 26 -51 c19 -40 35 -57 68 -72 72 -35 194 -23 248 26
11 10 67 79 125 153 57 74 115 149 128 165 25 32 793 1030 835 1085 14 18 65
85 114 149 50 64 136 177 193 251 57 74 109 142 116 150 6 8 169 220 362 470
192 250 354 460 360 467 5 6 48 61 95 123 47 61 162 211 256 333 l171 222 314
1 c173 0 319 -1 325 -3 7 -3 10 -125 10 -384 0 -375 0 -380 -20 -384 -12 -2
-129 -3 -261 -3 -141 0 -251 -4 -266 -10 -37 -15 -87 -60 -106 -95 -9 -18 -16
-57 -17 -89 0 -48 5 -64 30 -100 16 -24 48 -53 71 -66 39 -21 50 -22 292 -22
l251 -1 1 -52 c0 -28 2 -180 4 -337 2 -157 6 -562 10 -900 11 -1080 9 -1013
37 -1068 28 -55 93 -97 157 -100 82 -5 168 56 190 135 8 26 11 616 11 1849 0
1986 4 1860 -59 1931 -15 18 -51 44 -78 58 l-51 25 -473 -1 c-412 0 -479 -2
-514 -16z"/>
</g>
</svg>
